<svg xmlns="http://www.w3.org/2000/svg" version="1.1" xmlns:xlink="http://www.w3.org/1999/xlink" xmlns:svgjs="http://svgjs.dev/svgjs" width="2000" height="439" viewBox="0 0 2000 439"><g transform="matrix(1,0,0,1,-1.2121212121212466,-1.112958093467796)"><svg viewBox="0 0 396 87" data-background-color="#90adbb" preserveAspectRatio="xMidYMid meet" height="439" width="2000" xmlns="http://www.w3.org/2000/svg" xmlns:xlink="http://www.w3.org/1999/xlink"><g id="tight-bounds" transform="matrix(1,0,0,1,0.2400000000000091,0.2205634490471482)"><svg viewBox="0 0 395.52 86.55865138187463" height="86.55865138187463" width="395.52"><g><svg viewBox="0 0 565.9080254236992 123.84768276409542" height="86.55865138187463" width="395.52"><g transform="matrix(1,0,0,1,170.38802542369916,12.638502487365756)"><svg viewBox="0 0 395.52 98.57067778936391" height="98.57067778936391" width="395.52"><g id="textblocktransform"><svg viewBox="0 0 395.52 98.57067778936391" height="98.57067778936391" width="395.52" id="textblock"><g><svg viewBox="0 0 395.52 98.57067778936391" height="98.57067778936391" width="395.52"><g transform="matrix(1,0,0,1,0,0)"><svg width="395.52" viewBox="1.7 -34 191.78 47.800000000000004" height="98.57067778936391" data-palette-color="#0e5ddd"><path d="M9.15 0.65L9.15 0.65Q5.65 0.65 3.68-1.48 1.7-3.6 1.7-7.4L1.7-7.4Q1.7-11.15 3.3-14.1 4.9-17.05 7.7-18.75 10.5-20.45 14.05-20.45L14.05-20.45Q16.45-20.45 17.85-19.65 19.25-18.85 19.25-17.45L19.25-17.45Q19.25-16.2 18.05-15L18.05-15Q17.6-14.55 16.88-14.18 16.15-13.8 15.75-13.8L15.75-13.8Q15.3-13.8 15-14.15L15-14.15Q14.5-14.7 13.7-15.2 12.9-15.7 11.45-15.7L11.45-15.7Q9-15.7 7.45-14.03 5.9-12.35 5.9-9.65L5.9-9.65Q5.9-7.2 7.3-5.7 8.7-4.2 11-4.2L11-4.2Q12.2-4.2 13.63-4.63 15.05-5.05 16.15-5.85L16.15-5.85Q16.7-6.35 17.3-6.35L17.3-6.35Q18.3-6.35 18.3-5.1L18.3-5.1Q18.3-3.45 16.65-1.95L16.65-1.95Q15.4-0.8 13.33-0.08 11.25 0.65 9.15 0.65ZM25.55 13.8L25.55 13.8Q24.05 13.8 23.2 12.98 22.35 12.15 22.35 10L22.35 10Q22.35 8.55 22.67 6.35 23 4.15 23.45 1.7L23.45 1.7Q23.8-0.25 24.12-2.4 24.45-4.55 24.67-6.63 24.9-8.7 24.9-10.35L24.9-10.35Q24.9-12.25 24.47-13.65 24.05-15.05 22.75-15.45L22.75-15.45Q22.25-15.65 21.85-15.9 21.45-16.15 21.45-16.7L21.45-16.7Q21.45-17.4 22-18.25 22.55-19.1 23.57-19.73 24.6-20.35 25.9-20.35L25.9-20.35Q27.6-20.35 28.25-19.18 28.9-18 28.9-16.1L28.9-16.1Q28.9-15.55 28.85-14.98 28.8-14.4 28.7-13.8L28.7-13.8Q30.15-16.6 32.52-18.53 34.9-20.45 37.9-20.45L37.9-20.45Q40.9-20.45 42.62-18.43 44.35-16.4 44.35-12.95L44.35-12.95Q44.35-10.4 43.55-7.98 42.75-5.55 41.3-3.6 39.85-1.65 37.82-0.5 35.8 0.65 33.3 0.65L33.3 0.65Q31.5 0.65 30.15 0.03 28.8-0.6 27.8-1.6L27.8-1.6Q27.6-0.3 27.42 1.55 27.25 3.4 27.25 5L27.25 5Q27.25 6.85 27.67 7.9 28.1 8.95 29.35 9.5L29.35 9.5Q29.9 9.75 29.9 10.3L29.9 10.3Q29.9 10.7 29.5 11.55 29.1 12.4 28.17 13.1 27.25 13.8 25.55 13.8ZM34.45-4.75L34.45-4.75Q37.3-4.75 38.85-6.55 40.4-8.35 40.4-10.7L40.4-10.7Q40.4-12.75 39.3-13.88 38.2-15 36.35-15L36.35-15Q34.45-15 33-13.88 31.55-12.75 30.52-10.95 29.5-9.15 28.85-7.1L28.85-7.1Q31.35-4.75 34.45-4.75ZM54.45 0.65L54.45 0.65Q51.45 0.65 49.72-1.35 48-3.35 48-6.8L48-6.8Q48-9.35 48.82-11.8 49.65-14.25 51.15-16.2 52.65-18.15 54.65-19.3 56.65-20.45 59-20.45L59-20.45Q60.5-20.45 61.67-20 62.84-19.55 63.75-18.85L63.75-18.85Q63.7-22.25 63.4-24.95 63.09-27.65 61.95-29.95L61.95-29.95Q61.75-30.35 61.62-30.68 61.5-31 61.5-31.3L61.5-31.3Q61.5-32 62.07-32.6 62.65-33.2 63.5-33.6 64.34-34 65.09-34L65.09-34Q66.45-34 67.12-32.83 67.8-31.65 68-29.63 68.2-27.6 68.2-25L68.2-25Q68.2-21.2 67.84-18.15 67.5-15.1 67.2-12.8L67.2-12.8Q67-11.3 66.84-10.2 66.7-9.1 66.7-8.4L66.7-8.4Q66.7-4.85 69.75-4.2L69.75-4.2Q70.55-4.05 70.55-3.15L70.55-3.15Q70.55-2.6 70.22-1.75 69.9-0.9 69.05-0.23 68.2 0.45 66.59 0.45L66.59 0.45Q64.45 0.45 63.7-1 62.95-2.45 62.95-5.4L62.95-5.4Q61.55-2.85 59.4-1.1 57.25 0.65 54.45 0.65ZM56-4.7L56-4.7Q57.4-4.7 58.8-5.6 60.2-6.5 61.3-8.05L61.3-8.05Q61.95-9 62.47-10.23 63-11.45 63.45-12.7L63.45-12.7Q60.9-15 57.8-15L57.8-15Q55.09-15 53.5-13.38 51.9-11.75 51.9-9.35L51.9-9.35Q51.9-7.3 53.09-6 54.3-4.7 56-4.7ZM80.04 0.65L80.04 0.65Q77.04 0.65 75.32-1.35 73.59-3.35 73.59-6.8L73.59-6.8Q73.59-9.35 74.42-11.8 75.24-14.25 76.74-16.2 78.24-18.15 80.24-19.3 82.24-20.45 84.59-20.45L84.59-20.45Q86.09-20.45 87.27-20 88.44-19.55 89.34-18.85L89.34-18.85Q89.29-22.25 88.99-24.95 88.69-27.65 87.54-29.95L87.54-29.95Q87.34-30.35 87.22-30.68 87.09-31 87.09-31.3L87.09-31.3Q87.09-32 87.67-32.6 88.24-33.2 89.09-33.6 89.94-34 90.69-34L90.69-34Q92.04-34 92.72-32.83 93.39-31.65 93.59-29.63 93.79-27.6 93.79-25L93.79-25Q93.79-21.2 93.44-18.15 93.09-15.1 92.79-12.8L92.79-12.8Q92.59-11.3 92.44-10.2 92.29-9.1 92.29-8.4L92.29-8.4Q92.29-4.85 95.34-4.2L95.34-4.2Q96.14-4.05 96.14-3.15L96.14-3.15Q96.14-2.6 95.82-1.75 95.49-0.9 94.64-0.23 93.79 0.45 92.19 0.45L92.19 0.45Q90.04 0.45 89.29-1 88.54-2.45 88.54-5.4L88.54-5.4Q87.14-2.85 84.99-1.1 82.84 0.65 80.04 0.65ZM81.59-4.7L81.59-4.7Q82.99-4.7 84.39-5.6 85.79-6.5 86.89-8.05L86.89-8.05Q87.54-9 88.07-10.23 88.59-11.45 89.04-12.7L89.04-12.7Q86.49-15 83.39-15L83.39-15Q80.69-15 79.09-13.38 77.49-11.75 77.49-9.35L77.49-9.35Q77.49-7.3 78.69-6 79.89-4.7 81.59-4.7ZM122.74 0.6L122.74 0.6Q118.59 0.6 116.79-1.38 114.99-3.35 114.99-6.6L114.99-6.6Q114.99-7.45 115.14-8.65 115.29-9.85 115.54-11.55L115.54-11.55Q115.94-14 116.14-15.93 116.34-17.85 116.34-20.15L116.34-20.15Q116.34-22.8 116.19-24.45L116.19-24.45Q115.34-23.95 114.94-23.95L114.94-23.95Q114.14-23.95 114.14-25.75L114.14-25.75Q114.14-27.15 114.76-28.13 115.39-29.1 116.84-29.95L116.84-29.95Q118.29-30.85 120.51-31.5 122.74-32.15 125.29-32.15L125.29-32.15Q129.44-32.15 131.59-30.25 133.74-28.35 133.74-25.25L133.74-25.25Q133.74-23.25 132.89-21.55 132.04-19.85 130.49-18.55L130.49-18.55Q136.74-17.55 136.74-11.35L136.74-11.35Q136.74-8 134.84-5.25 132.94-2.5 129.69-0.95L129.69-0.95Q126.54 0.6 122.74 0.6ZM124.74-4.95L124.74-4.95Q126.99-4.95 128.81-5.58 130.64-6.2 131.74-7.4 132.84-8.6 132.84-10.2L132.84-10.2Q132.84-12.25 131.39-13.1 129.94-13.95 128.04-13.95L128.04-13.95Q127.24-13.95 126.04-13.8L126.04-13.8Q125.54-13.7 124.89-13.7L124.89-13.7Q123.79-13.7 123.06-14.6 122.34-15.5 122.34-16.85L122.34-16.85Q122.34-17.8 123.19-18.05L123.19-18.05Q129.29-19.65 129.29-23.6L129.29-23.6Q129.29-26.75 124.94-26.75L124.94-26.75Q123.34-26.75 120.99-26.2L120.99-26.2Q120.99-23.75 120.74-21.08 120.49-18.4 119.99-15.5L119.99-15.5Q119.69-13.5 119.51-12.13 119.34-10.75 119.34-9.9L119.34-9.9Q119.34-7.2 120.69-6.08 122.04-4.95 124.74-4.95ZM143.79 0.5L143.79 0.5Q142.34 0.5 141.64-0.3 140.94-1.1 140.94-3.1L140.94-3.1Q140.94-4.05 141.09-5.55 141.24-7.05 141.44-8.8L141.44-8.8Q141.74-10.95 141.96-13.3 142.19-15.65 142.19-17.8L142.19-17.8Q142.19-20.85 141.91-24.13 141.64-27.4 140.39-29.85L140.39-29.85Q139.94-30.85 139.94-31.3L139.94-31.3Q139.94-31.95 140.51-32.55 141.09-33.15 141.94-33.58 142.79-34 143.59-34L143.59-34Q144.89-34 145.54-32.83 146.19-31.65 146.39-29.63 146.59-27.6 146.59-25L146.59-25Q146.59-21.05 146.26-18.15 145.94-15.25 145.64-13.05L145.64-13.05Q145.44-11.6 145.26-10.3 145.09-9 145.09-7.95L145.09-7.95Q145.09-6.2 145.66-5.43 146.24-4.65 147.54-3.9L147.54-3.9Q147.89-3.7 148.06-3.53 148.24-3.35 148.24-3L148.24-3Q148.24-2.6 147.84-1.75 147.44-0.9 146.46-0.2 145.49 0.5 143.79 0.5ZM159.38 0.65L159.38 0.65Q155.93 0.65 153.86-1.23 151.78-3.1 151.78-6.75L151.78-6.75Q151.78-8.45 152.26-10.05 152.73-11.65 153.53-13.05L153.53-13.05Q152.73-12.55 152.33-12.55L152.33-12.55Q151.73-12.55 151.51-13.23 151.28-13.9 151.28-14.55L151.28-14.55Q151.28-15.7 151.76-16.38 152.23-17.05 152.68-17.4L152.68-17.4Q153.73-18.3 155.98-19.38 158.23-20.45 161.38-20.45L161.38-20.45Q165.68-20.45 168.06-18.05 170.43-15.65 170.43-11.35L170.43-11.35Q170.43-8 169.03-5.28 167.63-2.55 165.16-0.95 162.68 0.65 159.38 0.65ZM160.93-4.45L160.93-4.45Q163.43-4.45 165.16-6.03 166.88-7.6 166.88-10.2L166.88-10.2Q166.88-12.9 165.13-14.05 163.38-15.2 161.08-15.2L161.08-15.2Q160.03-15.2 159.18-15 158.33-14.8 157.58-14.5L157.58-14.5Q156.88-13.5 156.33-12.25 155.78-11 155.78-9.5L155.78-9.5Q155.78-7 157.28-5.73 158.78-4.45 160.93-4.45ZM180.53 13.8L180.53 13.8Q176.78 13.8 174.58 12.25 172.38 10.7 172.38 8.25L172.38 8.25Q172.38 6.45 173.51 5.05 174.63 3.65 176.48 3.65L176.48 3.65Q177.53 3.65 177.53 4.25L177.53 4.25Q177.53 4.6 177.41 5.05 177.28 5.5 177.28 5.95L177.28 5.95Q177.28 7.35 178.88 8.03 180.48 8.7 182.73 8.7L182.73 8.7Q184.13 8.7 185.58 8.4 187.03 8.1 188.01 7.48 188.98 6.85 188.98 5.8L188.98 5.8Q188.98 4.65 187.83 4.1 186.68 3.55 184.93 3.28 183.18 3 181.36 2.78 179.53 2.55 178.23 2.05L178.23 2.05Q176.58 1.5 175.78 0.7 174.98-0.1 174.98-1.35L174.98-1.35Q174.98-3.7 177.83-5.1L177.83-5.1Q176.18-5.95 175.36-7.5 174.53-9.05 174.53-10.95L174.53-10.95Q174.53-13.4 175.81-15.55 177.08-17.7 179.61-19.07 182.13-20.45 185.93-20.45L185.93-20.45Q187.63-20.45 189.38-20.13 191.13-19.8 192.31-18.93 193.48-18.05 193.48-16.4L193.48-16.4Q193.48-15.8 193.23-15.08 192.98-14.35 192.28-14.35L192.28-14.35Q191.98-14.35 191.48-14.48 190.98-14.6 190.58-14.7L190.58-14.7Q190.68-14.2 190.76-13.6 190.83-13 190.83-12.35L190.83-12.35Q190.83-9.4 188.83-7.03 186.83-4.65 182.98-4.2L182.98-4.2Q181.58-4.1 180.91-3.88 180.23-3.65 180.23-3.1L180.23-3.1Q180.23-2.6 180.83-2.38 181.43-2.15 182.38-2.05L182.38-2.05Q185.43-1.8 187.78-1.2 190.13-0.6 191.46 0.73 192.78 2.05 192.78 4.5L192.78 4.5Q192.78 7.35 191.11 9.43 189.43 11.5 186.63 12.65 183.83 13.8 180.53 13.8ZM182.43-8.55L182.43-8.55Q184.73-8.55 186.03-9.8 187.33-11.05 187.33-13.05L187.33-13.05Q187.33-13.6 187.23-14.18 187.13-14.75 187.03-15.15L187.03-15.15Q186.23-15.4 185.48-15.48 184.73-15.55 184.03-15.55L184.03-15.55Q181.38-15.55 179.88-14.55 178.38-13.55 178.38-11.8L178.38-11.8Q178.38-10.25 179.48-9.4 180.58-8.55 182.43-8.55Z" opacity="1" transform="matrix(1,0,0,1,0,0)" fill="#0e5ddd" class="wordmark-text-0" data-fill-palette-color="primary" id="text-0"></path></svg></g></svg></g></svg></g></svg></g><g><svg viewBox="0 0 123.84768276409542 123.84768276409542" height="123.84768276409542" width="123.84768276409542"><g><svg></svg></g><g id="icon-0"><svg viewBox="0 0 123.84768276409542 123.84768276409542" height="123.84768276409542" width="123.84768276409542"><g><path d="M0 61.924c0-34.2 27.724-61.924 61.924-61.924 34.2 0 61.924 27.724 61.924 61.924 0 34.2-27.724 61.924-61.924 61.924-34.2 0-61.924-27.724-61.924-61.924zM61.924 114.958c29.29 0 53.035-23.744 53.034-53.034 0-29.29-23.744-53.035-53.034-53.035-29.29 0-53.035 23.744-53.035 53.035 0 29.29 23.744 53.035 53.035 53.034z" data-fill-palette-color="accent" fill="#f98f7c" stroke="transparent"></path></g><g transform="matrix(1,0,0,1,33.71600058102317,29.262184696649946)"><svg viewBox="0 0 56.415681602049084 65.32331337079553" height="65.32331337079553" width="56.415681602049084"><g><svg xmlns="http://www.w3.org/2000/svg" xmlns:xlink="http://www.w3.org/1999/xlink" version="1.1" x="0" y="0" viewBox="27.968392415606672 23.233 47.91721516878668 55.483000000000004" style="enable-background:new 0 0 100 100;" xml:space="preserve" height="65.32331337079553" width="56.415681602049084" class="icon-dxe-0" data-fill-palette-color="accent" id="dxe-0"><g fill="#f98f7c" data-fill-palette-color="accent"><path d="M70.014 45.683C70.014 40.116 67.483 35.133 63.515 31.812 61.527 27.33 57.215 23.233 51.927 23.233 46.638 23.233 42.325 27.331 40.337 31.814 36.371 35.135 33.84 40.117 33.84 45.683 33.84 55.656 41.954 63.77 51.927 63.77S70.014 55.656 70.014 45.683M51.926 25.673C54.524 25.673 56.875 27.021 58.678 28.916A18 18 0 0 0 51.926 27.596C49.538 27.596 47.263 28.072 45.174 28.916 46.977 27.021 49.328 25.673 51.926 25.673M51.926 60.11C43.971 60.11 37.498 53.638 37.498 45.682S43.97 31.254 51.926 31.254 66.354 37.726 66.354 45.682 59.882 60.11 51.926 60.11" fill="#f98f7c" data-fill-palette-color="accent"></path><path d="M51.496 34.068A0.915 0.915 0 0 0 51.496 35.898C57.71 35.898 62.219 40.92 62.219 47.841A0.915 0.915 0 0 0 64.049 47.841C64.049 39.86 58.77 34.068 51.496 34.068" fill="#f98f7c" data-fill-palette-color="accent"></path><path d="M34.376 60.791L28.866 64.191A1.83 1.83 0 1 0 30.788 67.305L36.298 63.905A1.83 1.83 0 1 0 34.376 60.791" fill="#f98f7c" data-fill-palette-color="accent"></path><path d="M67.555 63.905L73.066 67.305A1.83 1.83 0 1 0 74.988 64.191L69.477 60.791A1.829 1.829 0 1 0 67.555 63.905" fill="#f98f7c" data-fill-palette-color="accent"></path><path d="M50.096 69.148V76.886A1.83 1.83 0 1 0 53.756 76.886V69.148A1.83 1.83 0 1 0 50.096 69.148" fill="#f98f7c" data-fill-palette-color="accent"></path></g></svg></g></svg></g></svg></g></svg></g></svg></g><defs></defs></svg><rect width="395.52" height="86.55865138187463" fill="none" stroke="none" visibility="hidden"></rect></g></svg></g></svg>