<svg xmlns="http://www.w3.org/2000/svg" version="1.1" xmlns:xlink="http://www.w3.org/1999/xlink" xmlns:svgjs="http://svgjs.dev/svgjs" width="2000" height="1181" viewBox="0 0 2000 1181"><g transform="matrix(1,0,0,1,-1.2121212121212466,-1.3260051853970936)"><svg viewBox="0 0 396 234" data-background-color="#ffffff" preserveAspectRatio="xMidYMid meet" height="1181" width="2000" xmlns="http://www.w3.org/2000/svg" xmlns:xlink="http://www.w3.org/1999/xlink"><g id="tight-bounds" transform="matrix(1,0,0,1,0.2400000000000091,0.2627309173437027)"><svg viewBox="0 0 395.52 233.4745381653126" height="233.4745381653126" width="395.52"><g><svg viewBox="0 0 397.4975999999999 234.64191085613913" height="233.4745381653126" width="395.52"><g><rect width="397.4975999999999" height="7.186771822848139" x="0" y="128.94887922802687" fill="#0e5ddd" opacity="1" stroke-width="0" stroke="transparent" fill-opacity="1" class="rect-yte-0" data-fill-palette-color="secondary" rx="1%" id="yte-0" data-palette-color="#0e5ddd"></rect></g><g transform="matrix(1,0,0,1,0.9887999999999693,154.9491898541424)"><svg viewBox="0 0 395.52 79.69272100199673" height="79.69272100199673" width="395.52"><g id="textblocktransform"><svg viewBox="0 0 395.52 79.69272100199673" height="79.69272100199673" width="395.52" id="textblock"><g><svg viewBox="0 0 395.52 79.69272100199673" height="79.69272100199673" width="395.52"><g transform="matrix(1,0,0,1,0,0)"><svg width="395.52" viewBox="1.81 -41.19 268.96999999999997 54.199999999999996" height="79.69272100199673" data-palette-color="#0e5ddd"><path d="M29.47-21.22L29.47-21.22 25.9-19.8Q25.05-22.49 23.05-23.93 21.04-25.37 18.24-25.37L18.24-25.37Q16.72-25.37 15.54-24.89 14.36-24.41 13.46-23.58 12.57-22.75 11.95-21.66 11.33-20.56 10.94-19.31 10.55-18.07 10.38-16.74 10.21-15.41 10.21-14.16L10.21-14.16Q10.21-12.82 10.35-11.45 10.5-10.08 10.85-8.83 11.21-7.57 11.79-6.48 12.38-5.4 13.27-4.59 14.16-3.78 15.39-3.32 16.63-2.86 18.24-2.86L18.24-2.86Q19.53-2.86 20.7-3.25 21.88-3.64 22.85-4.35 23.83-5.05 24.58-6.03 25.34-7.01 25.78-8.2L25.78-8.2 29.37-6.88Q28.56-4.96 27.23-3.55 25.9-2.15 24.22-1.23 22.53-0.32 20.61 0.12 18.68 0.56 16.7 0.56L16.7 0.56Q13.5 0.56 10.77-0.52 8.03-1.61 6.04-3.58 4.05-5.54 2.93-8.24 1.81-10.94 1.81-14.16L1.81-14.16Q1.81-17.41 2.92-20.12 4.03-22.83 6.01-24.78 7.98-26.73 10.72-27.81 13.45-28.88 16.7-28.88L16.7-28.88Q18.75-28.88 20.7-28.43 22.66-27.98 24.33-27.04 26-26.1 27.33-24.66 28.66-23.22 29.47-21.22ZM64.33-14.16L64.33-14.16Q64.33-11.08 63.4-8.4 62.47-5.71 60.72-3.72 58.96-1.73 56.42-0.59 53.88 0.56 50.66 0.56L50.66 0.56Q48.19 0.56 46.13-0.4 44.06-1.37 42.6-3.37L42.6-3.37 42.6 13.01 34.35 13.01 34.35-28.2 37.52-28.2 41.18-22.07Q41.72-23.61 42.66-24.87 43.6-26.12 44.83-27.01 46.07-27.91 47.54-28.39 49.02-28.88 50.66-28.88L50.66-28.88Q53.88-28.88 56.42-27.73 58.96-26.59 60.72-24.6 62.47-22.61 63.4-19.92 64.33-17.24 64.33-14.16ZM55.95-14.16L55.95-14.16Q55.95-15.23 55.84-16.44 55.73-17.65 55.47-18.85 55.2-20.04 54.72-21.14 54.25-22.24 53.51-23.08 52.78-23.93 51.74-24.43 50.71-24.93 49.34-24.93L49.34-24.93Q47.92-24.93 46.88-24.44 45.85-23.95 45.1-23.11 44.36-22.27 43.88-21.18 43.41-20.09 43.14-18.9 42.87-17.7 42.76-16.48 42.65-15.26 42.65-14.16L42.65-14.16Q42.65-13.18 42.8-12 42.94-10.82 43.26-9.62 43.58-8.42 44.09-7.3 44.6-6.18 45.35-5.3 46.09-4.42 47.08-3.89 48.07-3.37 49.34-3.37L49.34-3.37Q50.73-3.37 51.76-3.87 52.78-4.37 53.51-5.21 54.25-6.05 54.72-7.15 55.2-8.25 55.47-9.45 55.73-10.64 55.84-11.87 55.95-13.09 55.95-14.16ZM98.04-38.57L98.04 0 94.87 0 91.21-6.13Q90.67-4.59 89.73-3.34 88.79-2.1 87.56-1.21 86.32-0.32 84.85 0.17 83.37 0.66 81.73 0.66L81.73 0.66Q78.51 0.66 75.97-0.49 73.43-1.64 71.67-3.63 69.92-5.62 68.99-8.3 68.06-10.99 68.06-14.06L68.06-14.06Q68.06-17.14 68.99-19.82 69.92-22.51 71.67-24.49 73.43-26.46 75.97-27.61 78.51-28.76 81.73-28.76L81.73-28.76Q84.2-28.76 86.26-27.81 88.33-26.86 89.79-24.83L89.79-24.83 89.79-38.57 98.04-38.57ZM89.74-14.06L89.74-14.06Q89.74-15.04 89.59-16.21 89.45-17.38 89.13-18.58 88.81-19.78 88.3-20.9 87.79-22.02 87.04-22.9 86.3-23.78 85.31-24.3 84.32-24.83 83.05-24.83L83.05-24.83Q81.66-24.83 80.63-24.33 79.61-23.83 78.88-22.99 78.14-22.14 77.67-21.04 77.19-19.95 76.92-18.75 76.66-17.55 76.55-16.35 76.44-15.14 76.44-14.06L76.44-14.06Q76.44-12.99 76.55-11.78 76.66-10.57 76.92-9.38 77.19-8.18 77.67-7.07 78.14-5.96 78.88-5.11 79.61-4.27 80.63-3.77 81.66-3.27 83.05-3.27L83.05-3.27Q84.44-3.27 85.49-3.76 86.54-4.25 87.29-5.09 88.03-5.93 88.51-7.02 88.98-8.11 89.25-9.31 89.52-10.52 89.63-11.74 89.74-12.96 89.74-14.06ZM133.34-38.57L133.34 0 130.17 0 126.51-6.13Q125.97-4.59 125.03-3.34 124.09-2.1 122.86-1.21 121.62-0.32 120.15 0.17 118.67 0.66 117.03 0.66L117.03 0.66Q113.81 0.66 111.27-0.49 108.73-1.64 106.97-3.63 105.22-5.62 104.29-8.3 103.36-10.99 103.36-14.06L103.36-14.06Q103.36-17.14 104.29-19.82 105.22-22.51 106.97-24.49 108.73-26.46 111.27-27.61 113.81-28.76 117.03-28.76L117.03-28.76Q119.5-28.76 121.56-27.81 123.63-26.86 125.09-24.83L125.09-24.83 125.09-38.57 133.34-38.57ZM125.04-14.06L125.04-14.06Q125.04-15.04 124.89-16.21 124.75-17.38 124.43-18.58 124.11-19.78 123.6-20.9 123.09-22.02 122.34-22.9 121.6-23.78 120.61-24.3 119.62-24.83 118.35-24.83L118.35-24.83Q116.96-24.83 115.93-24.33 114.91-23.83 114.18-22.99 113.44-22.14 112.97-21.04 112.49-19.95 112.22-18.75 111.96-17.55 111.85-16.35 111.74-15.14 111.74-14.06L111.74-14.06Q111.74-12.99 111.85-11.78 111.96-10.57 112.22-9.38 112.49-8.18 112.97-7.07 113.44-5.96 114.18-5.11 114.91-4.27 115.93-3.77 116.96-3.27 118.35-3.27L118.35-3.27Q119.74-3.27 120.79-3.76 121.84-4.25 122.59-5.09 123.33-5.93 123.81-7.02 124.28-8.11 124.55-9.31 124.82-10.52 124.93-11.74 125.04-12.96 125.04-14.06ZM187.29-9.55L187.29-9.55Q187.29-8.06 186.8-6.76 186.32-5.47 185.46-4.41 184.61-3.34 183.47-2.51 182.34-1.68 181.03-1.12 179.72-0.56 178.33-0.28 176.94 0 175.6 0L175.6 0 154.92 0 154.92-35.16 173.82-35.16Q175.06-35.16 176.43-34.97 177.8-34.79 179.1-34.4 180.41-34.01 181.59-33.37 182.78-32.74 183.67-31.82 184.56-30.91 185.08-29.71 185.61-28.52 185.61-26.98L185.61-26.98Q185.61-25.51 185.02-24.32 184.44-23.12 183.45-22.18 182.46-21.24 181.18-20.52 179.89-19.8 178.48-19.26L178.48-19.26Q180.26-18.77 181.86-17.97 183.46-17.16 184.67-15.99 185.88-14.82 186.58-13.22 187.29-11.62 187.29-9.55ZM175.77-26.12L175.77-26.12Q175.77-29.1 174.19-30.47 172.62-31.84 169.71-31.84L169.71-31.84 164.61-31.84 164.61-20.43 168.88-20.43Q170.2-20.43 171.45-20.76 172.69-21.09 173.66-21.79 174.62-22.49 175.2-23.56 175.77-24.63 175.77-26.12ZM177.48-10.16L177.48-10.16Q177.48-11.6 177.11-12.85 176.75-14.11 175.99-15.03 175.23-15.94 174.1-16.47 172.96-16.99 171.42-16.99L171.42-16.99 164.61-16.99 164.61-3.42 170.57-3.42Q172.06-3.42 173.33-3.91 174.6-4.39 175.52-5.27 176.45-6.15 176.97-7.4 177.48-8.64 177.48-10.16ZM200.52-32.62L200.52 0 192.27 0 192.27-41.19 195.44-41.19 200.52-32.62ZM237.19-14.16L237.19-14.16Q237.19-11.96 236.6-10.03 236.02-8.11 234.98-6.47 233.94-4.83 232.48-3.53 231.01-2.22 229.27-1.32 227.52-0.42 225.53 0.07 223.54 0.56 221.44 0.56L221.44 0.56Q219.34 0.56 217.37 0.07 215.39-0.42 213.64-1.32 211.9-2.22 210.43-3.53 208.97-4.83 207.93-6.47 206.89-8.11 206.31-10.05 205.72-11.99 205.72-14.16L205.72-14.16Q205.72-16.33 206.31-18.27 206.89-20.21 207.93-21.85 208.97-23.49 210.43-24.79 211.9-26.1 213.64-27 215.39-27.91 217.37-28.39 219.34-28.88 221.44-28.88L221.44-28.88Q223.54-28.88 225.53-28.39 227.52-27.91 229.27-27 231.01-26.1 232.48-24.79 233.94-23.49 234.98-21.85 236.02-20.21 236.6-18.27 237.19-16.33 237.19-14.16ZM228.79-14.16L228.79-14.16Q228.79-15.33 228.66-16.64 228.52-17.94 228.21-19.2 227.89-20.46 227.34-21.62 226.79-22.78 225.98-23.65 225.18-24.51 224.05-25.04 222.93-25.56 221.44-25.56L221.44-25.56Q220.03-25.56 218.93-25.02 217.83-24.49 217.01-23.6 216.19-22.71 215.64-21.53 215.09-20.36 214.75-19.1 214.41-17.85 214.26-16.56 214.12-15.28 214.12-14.16L214.12-14.16Q214.12-13.04 214.26-11.76 214.41-10.47 214.75-9.2 215.09-7.93 215.64-6.77 216.19-5.62 217.01-4.72 217.83-3.83 218.93-3.3 220.03-2.76 221.44-2.76L221.44-2.76Q222.91-2.76 224.03-3.28 225.15-3.81 225.97-4.69 226.79-5.57 227.33-6.71 227.86-7.86 228.19-9.13 228.52-10.4 228.66-11.69 228.79-12.99 228.79-14.16ZM270.78-28.2L270.78-3.39Q270.78-0.02 269.78 2.95 268.78 5.93 266.87 8.17 264.97 10.4 262.2 11.71 259.43 13.01 255.89 13.01L255.89 13.01Q253.94 13.01 251.95 12.57 249.96 12.13 248.19 11.22 246.42 10.3 245.01 8.9 243.61 7.5 242.8 5.59L242.8 5.59 246.37 4.25Q246.83 5.44 247.58 6.45 248.32 7.45 249.3 8.17 250.27 8.89 251.44 9.29 252.62 9.69 253.91 9.69L253.91 9.69Q256.35 9.69 258 8.69 259.65 7.69 260.65 6.08 261.65 4.47 262.09 2.43 262.53 0.39 262.53-1.71L262.53-1.71 262.53-3.37Q261.06-1.37 259-0.4 256.94 0.56 254.47 0.56L254.47 0.56Q251.25 0.56 248.71-0.59 246.17-1.73 244.41-3.72 242.66-5.71 241.73-8.4 240.8-11.08 240.8-14.16L240.8-14.16Q240.8-17.24 241.73-19.92 242.66-22.61 244.41-24.6 246.17-26.59 248.71-27.73 251.25-28.88 254.47-28.88L254.47-28.88Q256.11-28.88 257.58-28.39 259.06-27.91 260.29-27.01 261.53-26.12 262.47-24.87 263.41-23.61 263.94-22.07L263.94-22.07 267.61-28.2 270.78-28.2ZM262.48-14.16L262.48-14.16Q262.48-15.26 262.37-16.48 262.26-17.7 261.99-18.9 261.72-20.09 261.25-21.18 260.77-22.27 260.03-23.11 259.28-23.95 258.23-24.44 257.18-24.93 255.79-24.93L255.79-24.93Q254.4-24.93 253.37-24.43 252.35-23.93 251.62-23.08 250.88-22.24 250.41-21.14 249.93-20.04 249.66-18.85 249.39-17.65 249.28-16.44 249.17-15.23 249.17-14.16L249.17-14.16Q249.17-13.09 249.28-11.87 249.39-10.64 249.66-9.45 249.93-8.25 250.41-7.15 250.88-6.05 251.62-5.21 252.35-4.37 253.37-3.87 254.4-3.37 255.79-3.37L255.79-3.37Q257.06-3.37 258.05-3.89 259.04-4.42 259.78-5.3 260.53-6.18 261.04-7.3 261.55-8.42 261.87-9.62 262.19-10.82 262.33-12 262.48-13.18 262.48-14.16Z" opacity="1" transform="matrix(1,0,0,1,0,0)" fill="#0e5ddd" class="wordmark-text-0" data-fill-palette-color="primary" id="text-0"></path></svg></g></svg></g></svg></g></svg></g><g transform="matrix(1,0,0,1,143.1902793286162,0)"><svg viewBox="0 0 111.11704134276752 110.13534042475949" height="110.13534042475949" width="111.11704134276752"><g><svg xmlns="http://www.w3.org/2000/svg" xmlns:xlink="http://www.w3.org/1999/xlink" version="1.1" x="8" y="0" viewBox="27.968392415606672 23.233 47.91721516878668 55.483000000000004" style="enable-background:new 0 0 100 100;" xml:space="preserve" height="110.13534042475949" width="95.11704134276752" class="icon-icon-0" data-fill-palette-color="accent" id="icon-0"><g fill="#f98f7c" data-fill-palette-color="accent"><path d="M70.014 45.683C70.014 40.116 67.483 35.133 63.515 31.812 61.527 27.33 57.215 23.233 51.927 23.233 46.638 23.233 42.325 27.331 40.337 31.814 36.371 35.135 33.84 40.117 33.84 45.683 33.84 55.656 41.954 63.77 51.927 63.77S70.014 55.656 70.014 45.683M51.926 25.673C54.524 25.673 56.875 27.021 58.678 28.916A18 18 0 0 0 51.926 27.596C49.538 27.596 47.263 28.072 45.174 28.916 46.977 27.021 49.328 25.673 51.926 25.673M51.926 60.11C43.971 60.11 37.498 53.638 37.498 45.682S43.97 31.254 51.926 31.254 66.354 37.726 66.354 45.682 59.882 60.11 51.926 60.11" fill="#f98f7c" data-fill-palette-color="accent"></path><path d="M51.496 34.068A0.915 0.915 0 0 0 51.496 35.898C57.71 35.898 62.219 40.92 62.219 47.841A0.915 0.915 0 0 0 64.049 47.841C64.049 39.86 58.77 34.068 51.496 34.068" fill="#f98f7c" data-fill-palette-color="accent"></path><path d="M34.376 60.791L28.866 64.191A1.83 1.83 0 1 0 30.788 67.305L36.298 63.905A1.83 1.83 0 1 0 34.376 60.791" fill="#f98f7c" data-fill-palette-color="accent"></path><path d="M67.555 63.905L73.066 67.305A1.83 1.83 0 1 0 74.988 64.191L69.477 60.791A1.829 1.829 0 1 0 67.555 63.905" fill="#f98f7c" data-fill-palette-color="accent"></path><path d="M50.096 69.148V76.886A1.83 1.83 0 1 0 53.756 76.886V69.148A1.83 1.83 0 1 0 50.096 69.148" fill="#f98f7c" data-fill-palette-color="accent"></path></g></svg></g></svg></g><g><rect width="66.65715932861623" height="7.186771822848139" y="101.94856860191135" x="254.30732067138374" fill="#0e5ddd" data-fill-palette-color="secondary"></rect><rect width="66.65715932861623" height="7.186771822848139" y="101.94856860191135" x="76.53311999999997" fill="#0e5ddd" data-fill-palette-color="secondary"></rect></g></svg></g><defs></defs></svg><rect width="395.52" height="233.4745381653126" fill="none" stroke="none" visibility="hidden"></rect></g></svg></g></svg>