<svg version="1.2" xmlns="http://www.w3.org/2000/svg" viewBox="0 0 329 329" width="329" height="329">
	<title>logo-no-background-svg</title>
	<style>
		.s0 { fill: #0e5ddd } 
		.s1 { fill: #f98f7c;stroke: #000000;stroke-width: 2.6 } 
		.s2 { fill: #f98f7c } 
	</style>
	<g id="Layer">
		<g id="Layer">
			<g id="tight-bounds">
				<g id="Layer">
					<g id="Layer">
						<g id="Layer">
							<g id="Layer">
								<g id="Layer">
									<g id="textblocktransform">
										<g id="textblock">
											<g id="Layer">
												<g id="Layer">
													<g id="Layer">
														<g id="Layer">
															<path id="text-0" fill-rule="evenodd" class="s0" d="m491.8 222.3q-19.1 0-29.9-11.7-10.8-11.5-10.8-32.2 0-20.5 8.7-36.5 8.8-16.1 24-25.4 15.3-9.2 34.7-9.2 13.1 0 20.8 4.3 7.6 4.4 7.6 12 0 6.8-6.5 13.4-2.5 2.4-6.4 4.4-4 2.1-6.2 2.1-2.5 0-4.1-1.9-2.7-3-7.1-5.7-4.4-2.8-12.3-2.8-13.4 0-21.8 9.1-8.5 9.2-8.5 23.9 0 13.4 7.7 21.5 7.6 8.2 20.2 8.2 6.5 0 14.3-2.3 7.8-2.3 13.8-6.7 3-2.7 6.3-2.7 5.4 0 5.4 6.8 0 9-9 17.2-6.8 6.3-18.1 10.2-11.4 4-22.8 4zm89.5 71.6q-8.2 0-12.8-4.4-4.7-4.6-4.7-16.3 0-7.9 1.8-19.9 1.8-12 4.2-25.3 1.9-10.6 3.7-22.4 1.8-11.7 3-23 1.3-11.3 1.3-20.3 0-10.4-2.4-18-2.3-7.6-9.4-9.8-2.7-1.1-4.9-2.4-2.2-1.4-2.2-4.4 0-3.8 3-8.5 3-4.6 8.6-8 5.6-3.4 12.7-3.4 9.3 0 12.8 6.4 3.6 6.4 3.6 16.8 0 3-0.3 6.1-0.3 3.1-0.8 6.4 7.9-15.3 20.9-25.8 13-10.4 29.3-10.4 16.4 0 25.8 11 9.4 11 9.4 29.8 0 13.9-4.3 27.1-4.4 13.3-12.3 23.9-7.9 10.6-19 16.9-11 6.3-24.7 6.3-9.8 0-17.2-3.4-7.4-3.5-12.8-8.9-1.1 7.1-2.1 17.2-0.9 10-0.9 18.8 0 10 2.3 15.8 2.3 5.7 9.2 8.7 3 1.4 3 4.4 0 2.1-2.2 6.8-2.2 4.6-7.3 8.4-5 3.8-14.3 3.8zm48.6-101.1q15.6 0 24-9.8 8.5-9.8 8.5-22.6 0-11.2-6-17.3-6-6.1-16.1-6.1-10.4 0-18.3 6.1-7.9 6.1-13.6 15.9-5.5 9.8-9.1 21 13.7 12.8 30.6 12.8zm109.2 29.5q-16.4 0-25.8-10.9-9.4-10.9-9.4-29.7 0-13.9 4.5-27.3 4.5-13.4 12.7-24 8.2-10.6 19.1-16.9 10.9-6.2 23.7-6.2 8.2 0 14.6 2.4 6.4 2.5 11.4 6.3-0.3-18.6-1.9-33.3-1.7-14.7-8-27.2-1-2.2-1.8-4-0.6-1.7-0.6-3.4 0-3.8 3.1-7.1 3.2-3.2 7.8-5.4 4.6-2.2 8.7-2.2 7.4 0 11.1 6.4 3.7 6.4 4.8 17.4 1.1 11.1 1.1 25.3 0 20.7-2 37.3-1.9 16.6-3.5 29.1-1.1 8.2-2 14.2-0.7 6-0.7 9.8 0 19.4 16.6 22.9 4.4 0.8 4.4 5.7 0 3-1.8 7.7-1.8 4.6-6.4 8.3-4.6 3.7-13.4 3.7-11.7 0-15.8-7.9-4.1-7.9-4.1-24-7.6 13.9-19.4 23.4-11.7 9.6-27 9.6zm8.5-29.2q7.6 0 15.2-4.9 7.7-4.9 13.7-13.4 3.5-5.1 6.4-11.8 2.9-6.7 5.3-13.5-13.9-12.5-30.8-12.5-14.8 0-23.5 8.8-8.7 8.9-8.7 22 0 11.1 6.5 18.2 6.6 7.1 15.9 7.1zm131.2 29.2q-16.4 0-25.8-10.9-9.4-10.9-9.4-29.7 0-13.9 4.5-27.3 4.5-13.4 12.7-24 8.2-10.6 19.1-16.9 10.9-6.2 23.8-6.2 8.1 0 14.6 2.4 6.4 2.5 11.3 6.3-0.3-18.6-1.9-33.3-1.7-14.7-7.9-27.2-1.1-2.2-1.8-4-0.7-1.7-0.7-3.4 0-3.8 3.2-7.1 3.1-3.2 7.7-5.4 4.7-2.2 8.8-2.2 7.3 0 11 6.4 3.7 6.4 4.8 17.4 1.1 11.1 1.1 25.3 0 20.7-1.9 37.3-1.9 16.6-3.6 29.1-1.1 8.2-1.9 14.2-0.8 6-0.8 9.8 0 19.4 16.6 22.9 4.4 0.8 4.4 5.7 0 3-1.7 7.7-1.8 4.6-6.5 8.3-4.6 3.7-13.4 3.7-11.7 0-15.8-7.9-4.1-7.9-4.1-24-7.6 13.9-19.4 23.4-11.7 9.6-27 9.6zm8.5-29.2q7.6 0 15.3-4.9 7.6-4.9 13.6-13.4 3.6-5.1 6.5-11.8 2.8-6.7 5.3-13.5-14-12.5-30.9-12.5-14.7 0-23.5 8.8-8.7 8.9-8.7 22 0 11.1 6.5 18.2 6.6 7.1 15.9 7.1zm224.6 28.9q-22.6 0-32.4-10.8-9.9-10.7-9.9-28.5 0-4.6 0.9-11.1 0.8-6.6 2.1-15.8 2.2-13.4 3.3-23.9 1.1-10.5 1.1-23 0-14.5-0.8-23.4-4.7 2.7-6.8 2.7-4.4 0-4.4-9.8 0-7.7 3.4-13 3.4-5.3 11.3-9.9 8-4.9 20.1-8.5 12.1-3.5 26.1-3.5 22.6 0 34.4 10.3 11.7 10.4 11.7 27.3 0 10.9-4.6 20.2-4.7 9.2-13.1 16.3 34.1 5.5 34.1 39.3 0 18.2-10.4 33.2-10.4 15-28.1 23.4-17.2 8.5-38 8.5zm11-30.3q12.3 0 22.2-3.4 10-3.4 16-9.9 6-6.6 6-15.3 0-11.2-7.9-15.8-7.9-4.6-18.3-4.6-4.4 0-10.9 0.8-2.8 0.5-6.3 0.5-6 0-10-4.9-3.9-4.9-3.9-12.2 0-5.2 4.6-6.6 33.3-8.7 33.3-30.2 0-17.2-23.7-17.2-8.8 0-21.6 3 0 13.4-1.4 27.9-1.3 14.6-4.1 30.4-1.6 10.9-2.6 18.4-0.9 7.5-0.9 12.2 0 14.7 7.4 20.8 7.3 6.1 22.1 6.1zm104 29.7q-7.9 0-11.8-4.3-3.8-4.4-3.8-15.3 0-5.2 0.8-13.3 0.9-8.2 1.9-17.7 1.7-11.8 2.9-24.6 1.2-12.8 1.2-24.5 0-16.6-1.5-34.5-1.5-17.8-8.3-31.2-2.4-5.4-2.4-7.9 0-3.5 3.1-6.8 3.1-3.3 7.8-5.6 4.6-2.3 9-2.3 7.1 0 10.6 6.4 3.6 6.4 4.7 17.4 1.1 11.1 1.1 25.3 0 21.5-1.8 37.3-1.8 15.8-3.4 27.8-1.1 7.9-2.1 15-0.9 7.1-0.9 12.8 0 9.5 3.1 13.7 3.2 4.3 10.3 8.4 1.9 1 2.8 2 1 1 1 2.9 0 2.1-2.2 6.8-2.2 4.6-7.5 8.4-5.3 3.8-14.6 3.8zm85.1 0.9q-18.8 0-30.1-10.3-11.4-10.2-11.4-30.1 0-9.2 2.6-18 2.6-8.7 7-16.3-4.4 2.7-6.6 2.7-3.3 0-4.5-3.7-1.2-3.6-1.2-7.2 0-6.3 2.6-10 2.6-3.6 5-5.5 5.8-4.9 18-10.8 12.3-5.8 29.5-5.8 23.5 0 36.5 13 12.9 13.1 12.9 36.6 0 18.2-7.6 33-7.7 14.9-21.1 23.6-13.6 8.8-31.6 8.8zm8.5-27.8q13.6 0 23.1-8.7 9.3-8.5 9.3-22.7 0-14.7-9.5-21-9.6-6.2-22.1-6.2-5.8 0-10.4 1.1-4.6 1-8.7 2.7-3.9 5.4-6.9 12.2-3 6.9-3 15 0 13.7 8.2 20.6 8.2 7 20 7zm107 99.4q-20.5 0-32.5-8.4-12-8.5-12-21.8 0-9.8 6.1-17.5 6.2-7.6 16.3-7.6 5.7 0 5.7 3.3 0 1.9-0.7 4.3-0.7 2.5-0.7 4.9 0 7.7 8.8 11.4 8.7 3.6 21 3.6 7.6 0 15.5-1.6 8-1.6 13.3-5 5.3-3.5 5.3-9.2 0-6.2-6.3-9.2-6.2-3-15.8-4.5-9.6-1.5-19.5-2.7-10-1.3-17.1-4-9-3-13.4-7.4-4.3-4.3-4.3-11.1 0-12.9 15.5-20.5-9-4.6-13.5-13.1-4.5-8.4-4.5-18.8 0-13.3 7-25 6.9-11.8 20.8-19.2 13.7-7.5 34.5-7.5 9.2 0 18.8 1.7 9.6 1.8 16 6.5 6.4 4.8 6.4 13.8 0 3.3-1.4 7.2-1.3 4-5.2 4-1.6 0-4.3-0.7-2.8-0.7-5-1.2 0.6 2.7 1 6 0.4 3.3 0.4 6.8 0 16.1-10.9 29-10.9 13-31.9 15.4-7.7 0.6-11.3 1.8-3.8 1.2-3.8 4.2 0 2.7 3.3 3.9 3.3 1.3 8.5 1.8 16.6 1.4 29.5 4.7 12.8 3.2 20.1 10.5 7.2 7.2 7.2 20.5 0 15.6-9.2 26.9-9.1 11.3-24.4 17.6-15.3 6.2-33.3 6.2zm10.4-121.8q12.5 0 19.6-6.8 7.1-6.8 7.1-17.7 0-3-0.5-6.2-0.6-3.1-1.1-5.3-4.4-1.3-8.5-1.8-4.1-0.3-7.9-0.3-14.5 0-22.7 5.4-8.2 5.5-8.2 15 0 8.4 6 13.1 6 4.6 16.2 4.6z"/>
														</g>
													</g>
												</g>
											</g>
										</g>
									</g>
								</g>
							</g>
							<g id="Layer">
								<g id="Layer">
									<g id="Layer">
										<g id="Layer">
										</g>
									</g>
									<g id="icon-0">
										<g id="Layer">
											<g id="Layer">
												<path id="Layer" fill-rule="evenodd" class="s1" d="m0 163.7c0-90.4 73.4-163.7 163.9-163.7 90.6 0 164 73.3 164 163.7 0 90.4-73.4 163.6-164 163.6-90.5 0-163.9-73.2-163.9-163.6zm163.9 140.1c77.6 0 140.4-62.7 140.4-140.1 0-77.4-62.8-140.2-140.4-140.2-77.5 0-140.4 62.7-140.4 140.2 0 77.4 62.9 140.1 140.4 140.1z"/>
											</g>
											<g id="Layer">
												<g id="Layer">
													<g id="Layer">
														<g id="dxe-0">
															<g id="Layer">
																<path id="Layer" fill-rule="evenodd" class="s2" d="m163.9 203.5c-31 0-56.3-25.3-56.3-56.3 0-17.3 7.8-32.8 20.2-43.2 6.2-13.9 19.7-26.7 36.1-26.7 16.5 0 30 12.8 36.2 26.7 12.3 10.4 20.2 25.9 20.2 43.2 0 31-25.3 56.3-56.4 56.3zm-21-108.5c6.5-2.6 13.6-4.1 21-4.1q2.7 0 5.4 0.3 2.7 0.2 5.4 0.8 2.6 0.5 5.2 1.2 2.6 0.8 5.1 1.8c-5.6-5.9-13-10.1-21.1-10.1-8.1 0-15.4 4.2-21 10.1zm66 52.2c0-24.8-20.2-44.9-45-44.9-24.8 0-44.9 20.1-44.9 44.9 0 24.8 20.1 44.9 44.9 44.9 24.8 0 45-20.1 45-44.9z"/>
																<path id="Layer" class="s2" d="m162.6 111.1c-0.8 0-1.5 0.3-2 0.8-0.6 0.5-0.9 1.2-0.9 2 0 0.8 0.3 1.5 0.9 2 0.5 0.6 1.2 0.9 2 0.9 19.4 0 33.4 15.6 33.4 37.1 0 0.8 0.3 1.5 0.9 2 0.5 0.6 1.2 0.9 2 0.9 0.7 0 1.5-0.3 2-0.9 0.5-0.5 0.8-1.2 0.8-2 0-24.8-16.4-42.8-39.1-42.8z"/>
																<path id="Layer" class="s2" d="m109.2 194.2l-17.1 10.6c-1.4 0.8-2.3 2-2.7 3.5-0.3 1.5-0.1 3.1 0.7 4.4 0.8 1.3 2.1 2.2 3.6 2.5 1.5 0.4 3.1 0.1 4.3-0.7l17.2-10.6c1.3-0.8 2.3-2.1 2.7-3.5 0.3-1.5 0.1-3.1-0.7-4.4-0.8-1.3-2.1-2.2-3.6-2.6-1.5-0.3-3.1 0-4.4 0.8z"/>
																<path id="Layer" class="s2" d="m212.6 203.9l17.2 10.6c1.3 0.8 2.9 1.1 4.4 0.7 1.5-0.3 2.8-1.2 3.6-2.5 0.8-1.3 1-2.9 0.6-4.4-0.3-1.5-1.3-2.7-2.6-3.5l-17.2-10.6c-1.2-0.8-2.8-1-4.3-0.7-1.4 0.4-2.7 1.3-3.5 2.6-0.8 1.3-1.1 2.8-0.7 4.3 0.3 1.4 1.3 2.7 2.5 3.5z"/>
																<path id="Layer" class="s2" d="m158.2 220.2v24.1c0 1.5 0.6 3 1.7 4 1.1 1.1 2.5 1.7 4 1.7 1.5 0 3-0.6 4.1-1.7 1-1 1.6-2.5 1.6-4v-24.1c0-1.5-0.6-2.9-1.6-4-1.1-1.1-2.6-1.7-4.1-1.7-1.5 0-2.9 0.6-4 1.7-1.1 1.1-1.7 2.5-1.7 4z"/>
															</g>
														</g>
													</g>
												</g>
											</g>
										</g>
									</g>
								</g>
							</g>
						</g>
					</g>
				</g>
			</g>
		</g>
	</g>
</svg>